<svg xmlns="http://www.w3.org/2000/svg" viewBox="0 0 520 112" role="img" aria-labelledby="title desc">
  <title id="title">DispatchToGo horizontal logo</title>
  <desc id="desc">Service van logo with DispatchToGo wordmark.</desc>
  <g transform="translate(0 2)">
    <path d="M28 69.5c0-1.5 1.2-2.8 2.8-2.8h2.7l1.4-9.6c.5-3.8 3.7-6.6 7.6-6.6h15.2c2.1 0 4.1.8 5.6 2.3l7.7 7.3h4.1c2.6 0 4.7 2.1 4.7 4.7v6.2c0 1.5-1.2 2.7-2.7 2.7h-2.8a6.65 6.65 0 0 0-12.85 0H44.65a6.65 6.65 0 0 0-12.85 0h-1.1A2.7 2.7 0 0 1 28 71Z" fill="#FAF7EA"/>
    <path d="M38.2 53.7h18.1c1.7 0 3.4.64 4.65 1.8l5.6 5.2H37l1.2-7Z" fill="#FAF7EA"/>
    <path d="M60 54.4 65.3 59c.57.5.93 1.15 1.07 1.86H60V54.4Z" fill="#0F5A43"/>
    <path d="M37.45 61.4h29.3" stroke="#0F5A43" stroke-width="1.7" stroke-linecap="round"/>
    <path d="M44.6 53.8v7" stroke="#0F5A43" stroke-width="1.5" stroke-linecap="round"/>
    <path d="M58.1 53.8v7" stroke="#0F5A43" stroke-width="1.5" stroke-linecap="round"/>
    <path d="M31.35 50.7h24.8c1.4 0 2.7.53 3.74 1.5l7.88 7.53h2.98c2.8 0 5.05 2.26 5.05 5.05v5.9c0 1.58-1.28 2.85-2.85 2.85h-2.22a6.8 6.8 0 0 0-13.14 0H44.35a6.8 6.8 0 0 0-13.14 0h-.41A2.8 2.8 0 0 1 28 70.75v-1.2a2.8 2.8 0 0 1 2.8-2.8h3.35l1.15-8.18a8.9 8.9 0 0 1 8.82-7.87Z" stroke="#0F5A43" stroke-width="2.2" stroke-linejoin="round"/>
    <path d="M63.5 46.4h8.4" stroke="#0F5A43" stroke-width="2.2" stroke-linecap="round"/>
    <path d="M65.2 44.2h12.1" stroke="#0F5A43" stroke-width="2.2" stroke-linecap="round"/>
    <path d="M70.9 44.2v6.8" stroke="#0F5A43" stroke-width="2.2" stroke-linecap="round"/>
    <path d="M49.6 44.8h18.8" stroke="#0F5A43" stroke-width="2.2" stroke-linecap="round"/>
    <path d="M51.4 44.8l-2.3 2.1" stroke="#0F5A43" stroke-width="2.2" stroke-linecap="round"/>
    <path d="m47.3 48.5 6.7 1" stroke="#0F5A43" stroke-width="2.2" stroke-linecap="round"/>
    <path d="M52.3 48.9 49 66.4" stroke="#0F5A43" stroke-width="2.2" stroke-linecap="round"/>
    <path d="M46.6 53.6h6" stroke="#0F5A43" stroke-width="1.8" stroke-linecap="round"/>
    <path d="M45.4 59.3h6" stroke="#0F5A43" stroke-width="1.8" stroke-linecap="round"/>
    <path d="M44.2 65h6" stroke="#0F5A43" stroke-width="1.8" stroke-linecap="round"/>
    <path d="M31.35 59v10.7" stroke="#0F5A43" stroke-width="2.2" stroke-linecap="round"/>
    <path d="M54.2 58c1.1 3.15 2.56 5.3 4.78 6.9 2.48-1.8 5-2.85 8.15-3.75-.92 3.08-2.88 5.96-5.55 8.26 2.97.58 5.68 1.73 8.18 3.76-2.07 2.15-4.77 3.6-8.2 4.42 1.7 2.2 2.9 4.78 3.42 7.7-2.96-.67-5.58-2.2-7.56-4.6-.68 3.36-1.8 6.02-3.7 9.2-1.86-3.12-3-5.84-3.68-9.2-1.98 2.4-4.6 3.94-7.56 4.6.53-2.93 1.7-5.5 3.42-7.7-3.43-.82-6.12-2.2-8.2-4.42 2.46-2.03 5.2-3.18 8.18-3.76-2.66-2.3-4.63-5.18-5.54-8.26 3.15.9 5.67 1.94 8.14 3.75 2.2-1.6 3.67-3.75 4.77-6.9Z" fill="#D53B2B" transform="matrix(.37 0 0 .37 34.2 47)"/>
    <circle cx="38.2" cy="74" r="5.1" fill="#0F5A43"/>
    <circle cx="38.2" cy="74" r="2.45" fill="#FAF7EA"/>
    <circle cx="67.7" cy="74" r="5.1" fill="#0F5A43"/>
    <circle cx="67.7" cy="74" r="2.45" fill="#FAF7EA"/>
  </g>
  <text x="112" y="66" fill="#0F5A43" font-family="Sora, Inter, Arial, sans-serif" font-size="62" font-weight="700" letter-spacing="-1.4">
    Dispatch
  </text>
  <text x="389" y="66" fill="#0F5A43" font-family="Sora, Inter, Arial, sans-serif" font-size="62" font-weight="700" letter-spacing="-1.4">
    ToGo
  </text>
</svg>
