<svg xmlns="http://www.w3.org/2000/svg" viewBox="0 0 72 72">
  <path d="M12 45.5c0-1.5 1.2-2.8 2.8-2.8h2.7l1.4-9.6c.5-3.8 3.7-6.6 7.6-6.6h15.2c2.1 0 4.1.8 5.6 2.3l7.7 7.3h4.1c2.6 0 4.7 2.1 4.7 4.7v6.2c0 1.5-1.2 2.7-2.7 2.7h-2.8a6.65 6.65 0 0 0-12.85 0H28.65a6.65 6.65 0 0 0-12.85 0h-1.1A2.7 2.7 0 0 1 12 47Z" fill="#FAF7EA"/>
  <path d="M22.2 29.7h18.1c1.7 0 3.4.64 4.65 1.8l5.6 5.2H21l1.2-7Z" fill="#FAF7EA"/>
  <path d="M44 30.4 49.3 35c.57.5.93 1.15 1.07 1.86H44v-6.46Z" fill="#0F5A43"/>
  <path d="M21.45 37.4h29.3" stroke="#0F5A43" stroke-width="1.7" stroke-linecap="round"/>
  <path d="M28.6 29.8v7" stroke="#0F5A43" stroke-width="1.5" stroke-linecap="round"/>
  <path d="M42.1 29.8v7" stroke="#0F5A43" stroke-width="1.5" stroke-linecap="round"/>
  <path d="M15.2 48.4h45.9" stroke="#0F5A43" stroke-width="2.1" stroke-linecap="round"/>
  <path d="M19.7 26.7h24.8c1.4 0 2.7.53 3.74 1.5l7.88 7.53h2.98c2.8 0 5.05 2.26 5.05 5.05v5.9c0 1.58-1.28 2.85-2.85 2.85h-2.22a6.8 6.8 0 0 0-13.14 0H28.35a6.8 6.8 0 0 0-13.14 0h-.41A2.8 2.8 0 0 1 12 46.75v-1.2a2.8 2.8 0 0 1 2.8-2.8h3.35l1.15-8.18a8.9 8.9 0 0 1 8.82-7.87Z" fill="#FAF7EA" stroke="#0F5A43" stroke-width="2.2" stroke-linejoin="round"/>
  <path d="M47.5 22.4h8.4" stroke="#0F5A43" stroke-width="2.2" stroke-linecap="round"/>
  <path d="M49.2 20.2h12.1" stroke="#0F5A43" stroke-width="2.2" stroke-linecap="round"/>
  <path d="M54.9 20.2v6.8" stroke="#0F5A43" stroke-width="2.2" stroke-linecap="round"/>
  <path d="M33.6 20.8h18.8" stroke="#0F5A43" stroke-width="2.2" stroke-linecap="round"/>
  <path d="M35.4 20.8l-2.3 2.1" stroke="#0F5A43" stroke-width="2.2" stroke-linecap="round"/>
  <path d="m31.3 24.5 6.7 1" stroke="#0F5A43" stroke-width="2.2" stroke-linecap="round"/>
  <path d="M36.3 24.9 33 42.4" stroke="#0F5A43" stroke-width="2.2" stroke-linecap="round"/>
  <path d="M30.6 29.6h6" stroke="#0F5A43" stroke-width="1.8" stroke-linecap="round"/>
  <path d="M29.4 35.3h6" stroke="#0F5A43" stroke-width="1.8" stroke-linecap="round"/>
  <path d="M28.2 41h6" stroke="#0F5A43" stroke-width="1.8" stroke-linecap="round"/>
  <path d="M15.35 35h2.4" stroke="#D53B2B" stroke-width="2.6" stroke-linecap="round"/>
  <path d="M20.2 34.4h2.6" stroke="#D53B2B" stroke-width="2.6" stroke-linecap="round"/>
  <path d="M24.7 38.4h3.2" stroke="#D53B2B" stroke-width="2.6" stroke-linecap="round"/>
  <path d="M37.2 33.9c1.1 3.15 2.56 5.3 4.78 6.9 2.48-1.8 5-2.85 8.15-3.75-.92 3.08-2.88 5.96-5.55 8.26 2.97.58 5.68 1.73 8.18 3.76-2.07 2.15-4.77 3.6-8.2 4.42 1.7 2.2 2.9 4.78 3.42 7.7-2.96-.67-5.58-2.2-7.56-4.6-.68 3.36-1.8 6.02-3.7 9.2-1.86-3.12-3-5.84-3.68-9.2-1.98 2.4-4.6 3.94-7.56 4.6.53-2.93 1.7-5.5 3.42-7.7-3.43-.82-6.12-2.2-8.2-4.42 2.46-2.03 5.2-3.18 8.18-3.76-2.66-2.3-4.63-5.18-5.54-8.26 3.15.9 5.67 1.94 8.14 3.75 2.2-1.6 3.67-3.75 4.77-6.9Z" fill="#D53B2B" transform="matrix(.37 0 0 .37 17.2 22.9)"/>
  <path d="M18.5 31.4v10.7" stroke="#0F5A43" stroke-width="2.2" stroke-linecap="round"/>
  <path d="M57.1 42.2c1.6 0 2.9 1.3 2.9 2.9" stroke="#0F5A43" stroke-width="2" stroke-linecap="round"/>
  <circle cx="22.2" cy="50" r="5.1" fill="#0F5A43"/>
  <circle cx="22.2" cy="50" r="2.45" fill="#FAF7EA"/>
  <circle cx="51.7" cy="50" r="5.1" fill="#0F5A43"/>
  <circle cx="51.7" cy="50" r="2.45" fill="#FAF7EA"/>
</svg>
